<svg width="30" height="30" viewBox="0 0 40 40" fill="none" xmlns="http://www.w3.org/2000/svg">
<circle cx="20" cy="20" r="20" fill="#FE813E"/>
<path d="M21.227 22.9821C21.227 24.2049 21.2206 25.4336 21.2334 26.6564C21.2334 26.9214 21.1566 27.0057 20.8751 26.9997C19.9666 26.9877 19.0645 26.9816 18.156 26.9997C17.8106 27.0057 17.753 26.8792 17.753 26.5961C17.7594 24.2049 17.7594 21.8196 17.7594 19.4283C17.7594 18.9886 17.7594 18.9886 17.2923 18.9886C16.9533 18.9886 16.6078 18.9826 16.2687 18.9886C16.0832 18.9947 16 18.9465 16 18.7537C16.0064 17.9888 16.0064 17.2298 16 16.4648C16 16.2721 16.0768 16.2299 16.2623 16.2299C16.6654 16.242 17.0748 16.2239 17.4779 16.236C17.689 16.242 17.7594 16.1697 17.7594 15.977C17.753 15.3746 17.7466 14.7723 17.7594 14.1699C17.7722 13.4291 17.8745 12.7063 18.38 12.0979C18.9494 11.4112 19.7555 11.1643 20.6384 11.0619C21.6044 10.9535 22.5769 11.0257 23.543 11.0017C23.7733 10.9956 23.8629 11.0679 23.8565 11.2968C23.8437 12.0618 23.8437 12.8207 23.8565 13.5857C23.8565 13.7965 23.7861 13.8688 23.5622 13.8688C23.0183 13.8567 22.4745 13.8628 21.9307 13.8688C21.4445 13.8748 21.2398 14.0495 21.2334 14.5012C21.2206 15.0012 21.2398 15.5071 21.227 16.0071C21.2206 16.1998 21.3037 16.248 21.4893 16.242C22.1802 16.236 22.8776 16.248 23.5686 16.236C23.7989 16.2299 23.8629 16.2962 23.8437 16.513C23.7733 17.1696 23.7157 17.8321 23.6581 18.4887C23.6133 18.9706 23.6133 18.9706 23.0887 18.9706C22.5769 18.9706 22.0651 18.9826 21.5533 18.9645C21.3037 18.9585 21.227 19.0368 21.227 19.2778C21.2334 20.5125 21.227 21.7473 21.227 22.9821Z" fill="white"/>
</svg>
