<svg width="30" height="30" viewBox="0 0 40 40" fill="none" xmlns="http://www.w3.org/2000/svg">
<circle cx="20" cy="20" r="20" fill="#FE813E"/>
<path d="M16.1338 19.8567C16.1338 21.8282 17.7601 23.4969 19.7102 23.4902C21.6406 23.4902 23.2735 21.8349 23.2669 19.8432C23.2603 17.8852 21.6406 16.1962 19.7036 16.2366C17.7733 16.203 16.1404 17.8852 16.1338 19.8567Z" fill="white"/>
<path d="M23.1891 11.0078C22.3958 10.9943 21.6025 11.0078 20.8092 11.0078L17.0874 11.0078C16.8494 11.0078 16.6114 11.0078 16.3734 11.001C15.7586 10.9943 15.157 11.0279 14.5686 11.2298C14.41 11.2836 14.2447 11.3307 14.0927 11.398C13.8282 11.5259 13.5638 11.6604 13.3192 11.8219C13.0812 11.9767 12.8498 12.1516 12.6449 12.3535C12.473 12.5217 12.3011 12.6967 12.1491 12.8918C11.9375 13.1677 11.7392 13.4503 11.5805 13.7665C11.4748 13.9751 11.3954 14.1972 11.3095 14.4192C11.1442 14.8432 11.0451 15.2805 11.0252 15.7313C10.9922 16.6532 10.9988 17.575 11.0054 18.4969L11.0054 21.1278C11.0054 21.8747 11.0054 22.6216 11.0054 23.3685C11.0054 23.8193 11.012 24.2634 11.1244 24.7008C11.1442 24.7748 11.1442 24.8556 11.1707 24.9229C11.3161 25.3333 11.4483 25.7438 11.6731 26.1273C11.8384 26.4099 12.0169 26.6791 12.2218 26.9213C12.4135 27.1501 12.6317 27.3587 12.863 27.5538C13.1341 27.7759 13.425 27.9777 13.7291 28.1392C13.934 28.2469 14.1455 28.3276 14.3571 28.4084C14.767 28.5766 15.1901 28.6775 15.6198 28.691C16.3139 28.7246 17.0146 28.7246 17.7088 28.7246C17.7154 28.7246 17.7286 28.7246 17.7352 28.7246L20.3994 28.7246L21.9794 28.7246C22.462 28.7246 22.9445 28.7246 23.4271 28.7246C23.685 28.7246 23.9428 28.7044 24.2072 28.6573C24.6237 28.5833 25.0137 28.4555 25.3972 28.294C25.6748 28.1796 25.9326 28.0315 26.1706 27.8633C26.5739 27.574 26.9441 27.2443 27.2614 26.8473C27.5126 26.531 27.7308 26.1946 27.9093 25.838C28.0547 25.5419 28.1737 25.2324 28.2464 24.9094C28.3258 24.573 28.4051 24.2365 28.4051 23.8866C28.4051 22.6149 28.4051 21.3431 28.4117 20.0647L28.4117 19.1092L28.4117 19.0083L28.4117 18.544C28.4117 18.5305 28.4117 18.5103 28.4117 18.4969C28.4117 17.7904 28.4117 17.0838 28.4117 16.384C28.4117 16.0072 28.4183 15.6371 28.339 15.2603C28.2861 15.0114 28.2398 14.7557 28.1539 14.5134C28.1142 14.3923 28.0812 14.2645 28.0283 14.1501C27.9027 13.8809 27.7704 13.6185 27.6118 13.3628C27.3936 13.0197 27.1424 12.7101 26.8582 12.4275C26.7061 12.2728 26.5342 12.1449 26.3623 12.0103C26.0715 11.7816 25.7541 11.6066 25.4236 11.4451C25.3046 11.3913 25.1724 11.3576 25.0534 11.3038C24.6634 11.1289 24.2469 11.0414 23.8304 11.0212C23.6519 11.0145 23.48 11.0078 23.3015 11.001L23.1891 11.001L23.1891 11.0078ZM24.4121 19.8628C24.4121 22.4938 22.2901 24.6604 19.7052 24.6537C17.1204 24.6537 14.9851 22.5005 15.0049 19.8561C14.9851 17.2319 17.1138 15.0585 19.7251 15.0652C22.2835 15.0787 24.4121 17.2184 24.4121 19.8628ZM15.5536 14.7153C15.5603 14.9306 15.4611 15.1459 15.3024 15.3074C15.1041 15.5093 14.8661 15.6708 14.5752 15.6439C14.0001 15.59 13.6629 15.2738 13.6035 14.648C13.6431 14.0626 14.0067 13.6589 14.5819 13.6656C15.157 13.6723 15.547 14.0693 15.5536 14.7153Z" fill="white"/>
</svg>
