<svg width="30" height="30" viewBox="0 0 43 43" fill="none" xmlns="http://www.w3.org/2000/svg">
<circle cx="21.5" cy="21.5" r="21.5" fill="#FE813E"/>
<path d="M24.2798 11.44C23.3752 11.1257 22.4059 11 21.5013 11C16.7196 11 12.5841 14.5829 12.0671 19.1714C11.421 24.3886 15.5565 28.4743 19.4335 31.4914C19.9504 31.8686 20.4028 32.2457 20.9197 32.56C21.3074 32.8743 21.5013 33 21.5013 33H21.5659C21.5659 33 21.8243 32.8114 22.212 32.4971C24.1506 30.9257 26.2829 29.48 27.963 27.5943C29.7077 25.5829 30.9354 23.1943 31 20.5543V20.24C30.9354 16.28 28.2861 12.6343 24.2798 11.44ZM21.5013 23.5086C19.4335 23.5086 17.7535 21.8743 17.7535 19.8629C17.7535 17.8514 19.4335 16.2171 21.5013 16.2171C23.569 16.2171 25.2491 17.8514 25.2491 19.8629C25.2491 21.8743 23.569 23.5086 21.5013 23.5086Z" fill="white"/>
</svg>
