<svg width="158" height="55" viewBox="0 0 158 55" fill="none" xmlns="http://www.w3.org/2000/svg">
<path d="M73.1076 15.0867C72.6697 15.2572 72.1176 15.3331 71.4893 15.3331C70.7658 15.3331 70.1566 15.2383 69.6807 15.0298C69.2047 14.8213 68.862 14.556 68.6145 14.2149C68.367 13.8737 68.2528 13.4757 68.2528 13.0398H63.8739C63.8739 14.2149 64.1595 15.2572 64.7307 16.167C65.3018 17.0767 66.1585 17.7968 67.2818 18.3085C68.4051 18.8203 69.7949 19.0856 71.4512 19.0856C72.9933 19.0856 74.307 18.8392 75.4112 18.3654C76.5155 17.8916 77.3531 17.2283 77.9433 16.3565C78.5335 15.4847 78.8381 14.4802 78.8381 13.3052C78.8381 12.1301 78.5526 11.1636 77.9624 10.3676C77.3722 9.57159 76.5726 8.92721 75.5635 8.47236C74.5355 7.99855 73.3741 7.71427 72.0414 7.60056L70.8991 7.5058C70.1376 7.44894 69.6045 7.24047 69.2999 6.91828C68.9953 6.59609 68.843 6.19809 68.843 5.74324C68.843 5.4021 68.9382 5.07992 69.0905 4.81458C69.2618 4.5303 69.5093 4.32183 69.852 4.17021C70.1947 4.01859 70.5945 3.94278 71.0895 3.94278C71.6035 3.94278 72.0414 4.03754 72.4222 4.22707C72.7839 4.41659 73.0695 4.68192 73.2599 5.00411C73.4503 5.32629 73.5455 5.68639 73.5455 6.08438H77.9243C77.9243 4.90935 77.6578 3.86697 77.1247 2.97622C76.5916 2.08547 75.811 1.38424 74.802 0.891479C73.7739 0.398722 72.5364 0.152344 71.0895 0.152344C69.7378 0.152344 68.5764 0.37977 67.5864 0.815671C66.5964 1.25157 65.8349 1.89595 65.2828 2.72984C64.7307 3.56374 64.4641 4.56821 64.4641 5.74324C64.4641 7.39208 65.0162 8.71874 66.1014 9.7232C67.1866 10.7277 68.6526 11.2962 70.4803 11.4668L71.6226 11.5616C72.6697 11.6374 73.3932 11.8269 73.831 12.1112C74.2689 12.3955 74.4974 12.7935 74.4974 13.3241C74.4974 13.7411 74.3832 14.0822 74.1357 14.3854C73.9072 14.6887 73.5645 14.9161 73.1076 15.0867Z" fill="black"/>
<path d="M87.0437 16.0343C87.8433 16.9629 88.8333 17.7021 90.0327 18.2706C91.2321 18.8392 92.641 19.1235 94.2593 19.1235C95.8585 19.1235 97.2673 18.8392 98.4668 18.2706C99.6662 17.7021 100.656 16.9629 101.456 16.0343C102.255 15.1056 102.846 14.1012 103.245 13.0209C103.645 11.9406 103.836 10.8982 103.836 9.87482V9.32521C103.836 8.18808 103.626 7.08885 103.207 5.98962C102.788 4.89039 102.179 3.90488 101.361 3.03308C100.542 2.14232 99.5519 1.44109 98.3525 0.929384C97.1912 0.417674 95.8204 0.152344 94.2593 0.152344C92.6791 0.152344 91.3083 0.417674 90.1089 0.929384C88.9094 1.46005 87.9195 2.16128 87.1008 3.03308C86.2821 3.90488 85.6729 4.90935 85.2731 5.98962C84.8733 7.08885 84.6639 8.18808 84.6639 9.32521V9.87482C84.6639 10.8982 84.8543 11.9406 85.2541 13.0209C85.6539 14.1012 86.2441 15.1056 87.0437 16.0343ZM89.5948 7.5058C89.8233 6.86142 90.1469 6.31181 90.5848 5.85696C91.0227 5.4021 91.5558 5.04201 92.165 4.79563C92.7743 4.54925 93.4787 4.43554 94.2593 4.43554C95.0208 4.43554 95.7062 4.54925 96.3344 4.79563C96.9437 5.04201 97.4768 5.4021 97.9146 5.85696C98.3525 6.31181 98.6952 6.86142 98.9237 7.5058C99.1521 8.15017 99.2664 8.8514 99.2664 9.64739C99.2664 10.3865 99.1521 11.0688 98.9237 11.6942C98.6952 12.3197 98.3716 12.8693 97.9337 13.362C97.4958 13.8548 96.9627 14.2149 96.3535 14.4613C95.7443 14.7266 95.0398 14.8592 94.2593 14.8592C93.4787 14.8592 92.7743 14.7266 92.165 14.4613C91.5558 14.1959 91.0227 13.8358 90.5848 13.362C90.1469 12.8882 89.8233 12.3386 89.5948 11.6942C89.3664 11.0499 89.2521 10.3865 89.2521 9.64739C89.2521 8.8514 89.3664 8.13122 89.5948 7.5058Z" fill="black"/>
<path d="M115.468 18.6307H122.17V14.6507H115.468V0.701904H110.937V18.6307H114.973H115.468Z" fill="black"/>
<path d="M133.536 0.701904H129.005V18.6307H133.536V0.701904Z" fill="black"/>
<path d="M157.372 5.95176C156.972 4.89044 156.363 3.94283 155.544 3.14684C154.725 2.33189 153.716 1.70647 152.517 1.25162C151.318 0.796762 149.909 0.569336 148.29 0.569336H146.044H145.549H141.513V18.7255H145.549H146.044H148.309C149.909 18.7255 151.318 18.4792 152.536 17.9675C153.754 17.4557 154.764 16.7924 155.563 15.9585C156.382 15.1057 156.991 14.1581 157.391 13.1157C157.791 12.0733 158 10.9741 158 9.89382V9.3442C157.981 8.15022 157.791 7.01308 157.372 5.95176ZM153.069 11.6374C152.841 12.2439 152.517 12.7366 152.098 13.1536C151.679 13.5705 151.165 13.8927 150.556 14.1012C149.947 14.3286 149.261 14.4423 148.5 14.4423H146.063V4.81463H148.5C149.261 4.81463 149.947 4.90939 150.556 5.11786C151.165 5.32634 151.679 5.62957 152.098 6.02757C152.517 6.42557 152.841 6.93728 153.069 7.52479C153.298 8.11231 153.412 8.81354 153.412 9.60954C153.412 10.3676 153.298 11.0309 153.069 11.6374Z" fill="black"/>
<path d="M77.9815 40.1225C78.5717 39.2696 78.8763 38.2651 78.8763 37.1091C78.8763 35.953 78.5908 34.9864 78.0006 34.1904C77.4104 33.3944 76.6108 32.769 75.6017 32.2952C74.5927 31.8214 73.4123 31.5371 72.0796 31.4234L70.9373 31.3286C70.1758 31.2718 69.6427 31.0633 69.3381 30.7411C69.0335 30.4189 68.8811 30.0209 68.8811 29.5661C68.8811 29.2249 68.9763 28.9217 69.1286 28.6374C69.3 28.3531 69.5475 28.1447 69.8902 27.9931C70.2329 27.8414 70.6327 27.7656 71.1277 27.7656C71.6417 27.7656 72.0796 27.8604 72.4604 28.0499C72.8221 28.2394 73.1077 28.4858 73.2981 28.808C73.4884 29.1302 73.5836 29.4903 73.5836 29.8693H77.9625C77.9625 28.6943 77.6959 27.6709 77.1629 26.7991C76.6298 25.9083 75.8492 25.226 74.8402 24.7333C73.8311 24.2405 72.5936 23.9941 71.1277 23.9941C69.776 23.9941 68.6146 24.2216 67.6246 24.6575C66.6346 25.0934 65.8731 25.7188 65.321 26.5527C64.7688 27.3866 64.5023 28.3721 64.5023 29.5471C64.5023 31.177 65.0544 32.5037 66.1396 33.4892C67.2248 34.4747 68.6908 35.0622 70.5184 35.2138L71.6608 35.3086C72.7079 35.3844 73.4313 35.5739 73.8692 35.8582C74.3071 36.1425 74.5356 36.5405 74.5356 37.0712C74.5356 37.4692 74.4213 37.8292 74.1738 38.1135C73.9454 38.3978 73.6027 38.6252 73.1458 38.7958C72.6888 38.9664 72.1558 39.0422 71.5275 39.0422C70.804 39.0422 70.1948 38.9474 69.7188 38.7579C69.2429 38.5684 68.9002 38.2841 68.6527 37.943C68.4242 37.6018 68.291 37.2038 68.291 36.7869H63.9121C63.9121 37.9619 64.1977 38.9853 64.7688 39.895C65.34 40.8047 66.1967 41.506 67.32 42.0177C68.4433 42.5294 69.8331 42.7947 71.4894 42.7947C73.0315 42.7947 74.3452 42.5673 75.4494 42.0935C76.5536 41.6386 77.3913 40.9753 77.9815 40.1225Z" fill="black"/>
<path d="M95.4206 28.5048V24.5627H81.1609V28.5048H86.0157V42.321H90.5468V28.5048H95.4206Z" fill="black"/>
<path d="M116.706 36.7869C117.105 35.7067 117.296 34.6832 117.296 33.6788V33.1292C117.296 32.011 117.086 30.9118 116.668 29.8315C116.249 28.7512 115.639 27.7657 114.821 26.8939C114.002 26.0221 113.012 25.3209 111.813 24.8091C110.613 24.2974 109.243 24.0321 107.681 24.0321C106.101 24.0321 104.73 24.2974 103.531 24.8091C102.332 25.3209 101.342 26.0221 100.523 26.8939C99.7043 27.7657 99.0951 28.7512 98.6953 29.8315C98.2955 30.9118 98.086 32.011 98.086 33.1292V33.6598C98.086 34.6643 98.2764 35.7067 98.6762 36.768C99.076 37.8293 99.6662 38.8338 100.447 39.7435C101.246 40.6532 102.236 41.3923 103.436 41.9609C104.635 42.5294 106.044 42.7948 107.662 42.7948C109.262 42.7948 110.67 42.5105 111.87 41.9609C113.069 41.3923 114.059 40.6721 114.859 39.7435C115.716 38.8527 116.325 37.8483 116.706 36.7869ZM112.403 35.4603C112.174 36.0857 111.851 36.6353 111.413 37.1091C110.975 37.5829 110.442 37.943 109.833 38.2083C109.224 38.4737 108.519 38.5874 107.739 38.5874C106.958 38.5874 106.254 38.4547 105.644 38.2083C105.035 37.962 104.502 37.5829 104.064 37.1091C103.626 36.6353 103.303 36.0857 103.074 35.4603C102.846 34.8349 102.731 34.1526 102.731 33.4324C102.731 32.6554 102.846 31.9541 103.074 31.3097C103.303 30.6843 103.626 30.1347 104.064 29.6799C104.502 29.225 105.035 28.8839 105.644 28.6375C106.254 28.3911 106.958 28.2774 107.739 28.2774C108.5 28.2774 109.185 28.3911 109.814 28.6375C110.423 28.8839 110.956 29.225 111.394 29.6799C111.832 30.1347 112.174 30.6843 112.403 31.3097C112.631 31.9352 112.746 32.6554 112.746 33.4324C112.746 34.1526 112.612 34.8349 112.403 35.4603Z" fill="black"/>
<path d="M135.535 38.72H135.173L129.252 24.5627H121.827V42.321H126.015V28.1637H126.377L132.298 42.321H139.761V24.5627H135.535V38.72Z" fill="black"/>
<path d="M149.547 35.157H156.039V31.4424H149.547V28.2584H156.401V24.5627H149.547H149.052H145.168V42.321H149.052H149.547H156.553V38.6253H149.547V35.157Z" fill="black"/>
<path d="M68.0434 52.612H67.834L65.1877 47.1348H64.4642V54.7915H65.0163V47.9497L67.5104 53.1426H68.348L70.8611 47.9308V54.7915H71.4513V47.1348H70.6898L68.0434 52.612Z" fill="black"/>
<path d="M77.4674 47.1348L74.4974 54.7915H75.0876L76.0966 52.214H80.0947L81.1228 54.7915H81.732L78.6478 47.1348H77.4674ZM76.268 51.7022L77.8291 47.6465H78.2289L79.8472 51.7022H76.268Z" fill="black"/>
<path d="M89.0238 50.9822C88.662 50.7926 88.2051 50.6789 87.6911 50.641L86.7392 50.5652C86.2251 50.5084 85.8253 50.3757 85.5398 50.1104C85.2542 49.864 85.1209 49.5228 85.1209 49.1059C85.1209 48.8216 85.1971 48.5373 85.3303 48.2909C85.4636 48.0446 85.6921 47.8361 85.9776 47.6845C86.2823 47.5329 86.663 47.4571 87.139 47.4571C87.634 47.4571 88.0338 47.5329 88.3384 47.7034C88.643 47.874 88.8715 48.0825 89.0238 48.3668C89.1761 48.6321 89.2332 48.9353 89.2332 49.2386H89.8234C89.8234 48.8027 89.7282 48.4236 89.5188 48.0635C89.3093 47.7224 89.0047 47.4381 88.6049 47.2296C88.2051 47.0212 87.7101 46.9264 87.139 46.9264C86.5678 46.9264 86.0919 47.0212 85.6921 47.2107C85.3113 47.4002 85.0067 47.6655 84.8163 47.9877C84.6259 48.3099 84.5307 48.6889 84.5307 49.0869C84.5307 49.6555 84.7211 50.1104 85.1019 50.4705C85.4826 50.8116 85.9967 51.0201 86.663 51.0769L87.6149 51.1527C88.2622 51.2096 88.7572 51.3991 89.0618 51.6834C89.3855 51.9677 89.5378 52.3278 89.5378 52.7447C89.5378 53.0859 89.4426 53.3701 89.2713 53.6355C89.0999 53.9008 88.8334 54.0903 88.4717 54.2419C88.1099 54.3936 87.672 54.4694 87.139 54.4694C86.5678 54.4694 86.1109 54.3936 85.7492 54.223C85.3875 54.0524 85.1209 53.8439 84.9496 53.5597C84.7782 53.2754 84.7021 52.9721 84.7021 52.612H84.15C84.15 53.0669 84.2642 53.4649 84.4927 53.8439C84.7211 54.204 85.0448 54.4883 85.5017 54.6968C85.9396 54.9053 86.5107 55 87.177 55C87.8053 55 88.3574 54.9053 88.7953 54.7157C89.2332 54.5262 89.5759 54.2609 89.8043 53.9198C90.0328 53.5786 90.147 53.1996 90.147 52.7637C90.147 52.3846 90.0518 52.0435 89.8614 51.7403C89.6711 51.4181 89.3855 51.1717 89.0238 50.9822Z" fill="black"/>
<path d="M99.9899 48.1772C99.6472 47.7982 99.2283 47.495 98.7333 47.2675C98.2383 47.0401 97.6672 46.9264 97.0199 46.9264C96.3726 46.9264 95.8014 47.0401 95.3064 47.2675C94.8114 47.495 94.3926 47.7982 94.0499 48.1772C93.7072 48.5563 93.4407 48.9732 93.2693 49.447C93.098 49.9019 93.0028 50.3757 93.0028 50.8684V51.039C93.0028 51.4939 93.098 51.9677 93.2503 52.4225C93.4026 52.8774 93.6691 53.3133 94.0118 53.6923C94.3545 54.0714 94.7734 54.3936 95.2684 54.621C95.7634 54.8484 96.3535 54.9621 97.0199 54.9621C97.6862 54.9621 98.2574 54.8484 98.7714 54.621C99.2664 54.3936 99.6853 54.0714 100.009 53.6923C100.333 53.3133 100.599 52.8774 100.77 52.4225C100.942 51.9677 101.018 51.4939 101.018 51.039V50.8684C101.018 50.3946 100.923 49.9208 100.751 49.447C100.58 48.9732 100.333 48.5563 99.9899 48.1772ZM100.199 52.233C100.047 52.65 99.8376 53.029 99.533 53.3512C99.2474 53.6923 98.8857 53.9577 98.4668 54.1472C98.048 54.3367 97.553 54.4315 97.0199 54.4315C96.4678 54.4315 95.9918 54.3367 95.5539 54.1472C95.1351 53.9577 94.7734 53.6923 94.4878 53.3512C94.2022 53.01 93.9737 52.65 93.8214 52.233C93.6691 51.8161 93.593 51.3802 93.593 50.9443C93.593 50.4894 93.6691 50.0346 93.8214 49.6176C93.9737 49.2007 94.2022 48.8216 94.5068 48.4994C94.8114 48.1772 95.1541 47.9119 95.592 47.7224C96.0299 47.5329 96.4868 47.4381 97.0199 47.4381C97.553 47.4381 98.0289 47.5329 98.4478 47.7224C98.8666 47.9119 99.2284 48.1583 99.5139 48.4994C99.7995 48.8406 100.028 49.2007 100.18 49.6176C100.333 50.0346 100.409 50.4705 100.409 50.9443C100.428 51.3991 100.352 51.8161 100.199 52.233Z" fill="black"/>
<path d="M110.137 54.2797H110.023L105.378 47.1348H104.35V54.7915H104.921V47.6465H105.054L109.699 54.7915H110.728V47.1348H110.137V54.2797Z" fill="black"/>
<path d="M118.476 51.4748C118.857 51.2853 119.143 51.02 119.333 50.6789C119.523 50.3377 119.619 49.9397 119.619 49.5038V49.3712C119.619 48.9163 119.523 48.5373 119.333 48.1961C119.143 47.855 118.857 47.5896 118.476 47.4001C118.095 47.2106 117.62 47.1158 117.029 47.1158H115.259H114.992H114.669V54.8104H115.259V51.7781H117.029C117.048 51.7781 117.067 51.7781 117.086 51.7781L119.619 54.8104H120.342L117.753 51.7023C118.019 51.6454 118.267 51.5696 118.476 51.4748ZM115.259 47.6086H117.105C117.562 47.6086 117.924 47.6844 118.21 47.855C118.495 48.0066 118.686 48.234 118.838 48.5183C118.971 48.8026 119.028 49.1058 119.028 49.428C119.028 49.7502 118.971 50.0724 118.838 50.3377C118.705 50.622 118.495 50.8305 118.21 51.001C117.924 51.1527 117.562 51.2474 117.105 51.2474H115.259V47.6086Z" fill="black"/>
<path d="M125.673 51.3043H124.949L122.646 47.1348H122.036L124.607 51.7781H125.006V54.7915H125.597V51.7781H125.996L128.433 47.1348H127.862L125.673 51.3043Z" fill="black"/>
<path d="M135.877 47.1348H135.306V54.7915H135.687H135.877H139.495V54.2797H135.877V47.1348Z" fill="black"/>
<path d="M142.998 47.1348H142.408V54.7915H142.788H142.998H146.596V54.2797H142.998V47.1348Z" fill="black"/>
<path d="M154.649 53.8818C154.116 54.2609 153.488 54.4504 152.707 54.4504C152.136 54.4504 151.66 54.3556 151.241 54.1472C150.823 53.9387 150.48 53.6923 150.213 53.3512C149.947 53.029 149.737 52.65 149.604 52.233C149.471 51.8161 149.395 51.3802 149.395 50.9443C149.395 50.4705 149.471 50.0346 149.604 49.6176C149.737 49.2007 149.947 48.8216 150.213 48.4994C150.48 48.1772 150.823 47.9119 151.222 47.7413C151.622 47.5518 152.098 47.4571 152.631 47.4571C153.126 47.4571 153.564 47.5329 153.964 47.7034C154.364 47.874 154.687 48.1204 154.954 48.4426C155.22 48.7648 155.373 49.1817 155.449 49.6555H156.039C155.982 49.1059 155.792 48.6321 155.506 48.2151C155.22 47.7982 154.821 47.495 154.326 47.2675C153.831 47.0401 153.278 46.9264 152.631 46.9264C151.965 46.9264 151.394 47.0401 150.918 47.2675C150.442 47.495 150.042 47.7982 149.718 48.1772C149.395 48.5563 149.166 48.9732 149.014 49.447C148.862 49.9208 148.785 50.3757 148.785 50.8684V51.0201C148.785 51.456 148.862 51.9108 149.014 52.3846C149.166 52.8584 149.395 53.2754 149.718 53.6734C150.042 54.0524 150.442 54.3746 150.937 54.621C151.432 54.8674 152.022 54.9811 152.707 54.9811C153.374 54.9811 153.945 54.8674 154.44 54.6399C154.935 54.4125 155.335 54.0903 155.62 53.6734C155.925 53.2564 156.115 52.8016 156.191 52.252H155.601C155.487 52.9532 155.163 53.5028 154.649 53.8818Z" fill="black"/>
<path d="M1.1803 53.2754H53.2504V1.53589H1.1803V53.2754ZM50.2233 47.3054C50.2233 49.049 49.0429 50.4515 47.596 50.4515H31.2801C30.4424 50.4515 29.6618 49.9777 29.1859 49.1817L23.9503 40.6722C23.4172 39.8193 23.2839 38.6822 23.6076 37.6777L27.3391 25.7947C27.777 24.4112 28.9383 23.5773 30.1568 23.7858L47.9958 26.7802C49.2905 26.9887 50.2614 28.3343 50.2614 29.9073L50.2233 47.3054ZM26.768 4.32186H47.596C49.0429 4.32186 50.2233 5.70537 50.2233 7.43002V20.6586C50.2233 22.5349 48.8145 23.9942 47.2533 23.7289L29.4524 20.8292C28.4814 20.6776 27.6628 19.8816 27.3391 18.7824L24.312 8.45344C23.7028 6.44451 24.9784 4.32186 26.768 4.32186ZM4.16933 7.43002C4.16933 5.72432 5.34972 4.32186 6.79664 4.32186H18.5624C19.6666 4.32186 20.6566 5.15576 21.0374 6.4066L25.3972 21.1514C25.6066 21.8337 25.5876 22.5728 25.3782 23.2551L21.4943 35.7067C21.1136 36.9196 20.1426 37.7346 19.0384 37.7346H6.79664C5.34972 37.7346 4.16933 36.3511 4.16933 34.6264V7.43002ZM4.16933 43.9509C4.16933 42.2452 5.34972 40.8427 6.79664 40.8427H19.4762C20.3139 40.8427 21.0945 41.3165 21.5895 42.1125L23.6837 45.5239C24.9403 47.5708 23.7028 50.4515 21.5705 50.4515H6.79664C5.34972 50.4515 4.16933 49.068 4.16933 47.3433V43.9509Z" fill="white"/>
<path d="M27.3392 18.7823C27.6629 19.8815 28.4815 20.6775 29.4525 20.8291L47.2534 23.7288C48.8336 23.9942 50.2234 22.5348 50.2234 20.6586V7.42994C50.2234 5.72424 49.0431 4.32178 47.5961 4.32178H26.7681C24.9594 4.32178 23.7029 6.42547 24.2931 8.45336L27.3392 18.7823Z" fill="#54686D"/>
<path d="M6.79674 37.7345H19.0385C20.1427 37.7345 21.1136 36.9196 21.4944 35.7066L25.3783 23.255C25.5877 22.5727 25.5877 21.8336 25.3973 21.1513L21.0375 6.40652C20.6758 5.15567 19.6858 4.32178 18.5625 4.32178H6.79674C5.34982 4.32178 4.16943 5.70529 4.16943 7.42994V34.6263C4.16943 36.351 5.34982 37.7345 6.79674 37.7345Z" fill="#FE813E"/>
<path d="M47.9769 26.7992L30.1379 23.8047C28.9194 23.5963 27.7581 24.4302 27.3202 25.8137L23.5886 37.6967C23.284 38.7012 23.3983 39.8193 23.9313 40.6911L29.1669 49.2007C29.6619 49.9967 30.4425 50.4705 31.2611 50.4705H47.5771C49.024 50.4705 50.2044 49.068 50.2044 47.3244V29.9073C50.2234 28.3343 49.2715 27.0077 47.9769 26.7992Z" fill="#FE813E"/>
<path d="M6.79674 50.4514H21.5706C23.7029 50.4514 24.9404 47.5707 23.6838 45.5239L21.5896 42.1125C21.0946 41.3165 20.314 40.8427 19.4763 40.8427H6.79674C5.34982 40.8427 4.16943 42.2262 4.16943 43.9508V47.3622C4.16943 49.0679 5.34982 50.4514 6.79674 50.4514Z" fill="#54686D"/>
<path d="M0 0.322876V54.4883H54.4119V0.322876H0ZM53.2315 53.2753H1.18038V1.53582H53.2505L53.2315 53.2753Z" fill="black"/>
</svg>
